# xmcd
#
# Track frame offsets:
# 183
# 12143
# 29195
# 41895
# 52595
# 62188
# 72520
# 86820
# 102185
# 114940
# 127818
# 147975
# 167273
#
# Disc length: 2512 seconds
#
#
# Revision: 5
# Processed by: cddbd v1.5PL3 Copyright (c) Steve Scherf et al.
# Submitted via: FreeRIP 2.53 
#
DISCID=ac09ce0d
DTITLE=Townes Van Zandt - Pancho and Lefty (Live and Obscure)
DYEAR=1987
DGENRE=
TTITLE0=Dollar Bill Blues
TTITLE1=Many A Fine Lady
TTITLE2=Nothin'
TTITLE3=Pueblo Waltz
TTITLE4=Talking Thunderbird Blues
TTITLE5=Rex's Blues
TTITLE6=White Freightliner Blues
TTITLE7=Loretta
TTITLE8=Snake Mountain Blues
TTITLE9=Waitin' Round To Die
TTITLE10=Tecumseh Valley
TTITLE11=Pancho And Lefty
TTITLE12=You Are Not Needed Now
EXTD=
EXTT0=
EXTT1=
EXTT2=
EXTT3=
EXTT4=
EXTT5=
EXTT6=
EXTT7=
EXTT8=
EXTT9=
EXTT10=
EXTT11=
EXTT12=
PLAYORDER=
